<svg data-v-0dd9719b="" version="1.0" xmlns="http://www.w3.org/2000/svg" xmlns:xlink="http://www.w3.org/1999/xlink" width="100%" height="100%" viewBox="0 0 340.000000 250.000000" preserveAspectRatio="xMidYMid meet" color-interpolation-filters="sRGB" style="margin: auto;"> <rect data-v-0dd9719b="" x="0" y="0" width="100%" height="100%" fill="#fff" fill-opacity="1" class="background"></rect> <rect data-v-0dd9719b="" x="0" y="0" width="100%" height="100%" fill="url(#watermark)" fill-opacity="1" class="watermarklayer"></rect> <g data-v-0dd9719b="" fill="#f9a208" class="icon-text-wrapper icon-svg-group iconsvg" transform="translate(86.2750015258789,67.32495498657227)"><g class="iconsvg-imagesvg" transform="translate(53.724998474121094,0)"><g><rect fill="#f9a208" fill-opacity="0" stroke-width="2" x="0" y="0" width="60.00000000000049" height="60.267588091125084" class="image-rect"></rect> <svg x="0" y="0" width="60.00000000000049" height="60.267588091125084" filtersec="colorsb7142060333" class="image-svg-svg primary" style="overflow: visible;"><svg xmlns="http://www.w3.org/2000/svg" viewBox="0 -0.000030737668566871434 751.2100830078125 754.56005859375"><g><g><path d="M376.44 0a376.37 376.37 0 0 1 169 40v339.79h-71.96V84.22a307.26 307.26 0 0 0-97-15.62c-170 0-307.85 137.86-307.85 307.84a306.61 306.61 0 0 0 75.29 201.68v94.33C56.27 603.52 0 496.54 0 376.44 0 168.58 168.57 0 376.44 0z" fill="#f9a208" fill-rule="evenodd"></path><path d="M339.63 230.88h71.94v292.79h-71.94z" fill="#333333"></path><path d="M374.77 754.56a376.42 376.42 0 0 1-169-40V374.77h71.94v295.57a307.3 307.3 0 0 0 97 15.62c170 0 307.84-137.86 307.84-307.84a306.6 306.6 0 0 0-75.28-201.68V82.11C694.93 151 751.21 258 751.21 378.12c0 207.88-168.58 376.44-376.44 376.44z" fill="#f2ae03" fill-rule="evenodd"></path></g></g></svg></svg> <!----></g></g> <g transform="translate(0,67.2675895690918)"><g data-gra="path-name" fill-rule="" class="tp-name iconsvg-namesvg" transform="translate(0,0)"><g transform="scale(1)"><g><path d="M2.97 0L11.65 0 11.65-22.63 11.92-22.63 16.25-5 24.97-5 29.43-22.63 29.7-22.63 29.7 0 38.48 0 38.48-31.23 24.39-31.23 20.93-15.57 20.65-15.57 17.59-31.23 2.97-31.23ZM66.73 0L76.28 0 64.89-31.23 52.78-31.23 41.31 0 50.67 0 52.88-6.57 64.58-6.57ZM55.26-13.77L58.5-23.54 59.04-23.54 62.23-13.77ZM87.44 0.45C97.11 0.45 100.13-3.19 100.13-9.4 100.13-15.07 99.18-17.55 91.39-19.57 87.52-20.56 86.85-20.88 86.85-22.32 86.85-23.8 87.97-24.48 90.85-24.48 93.33-24.48 97.25-23.89 98.55-23.4L98.55-30.55C96.8-31.14 94.36-31.68 90.45-31.68 82.98-31.68 78.21-29.34 78.21-21.96 78.21-16.43 79.83-14.26 86.67-12.69 90.58-11.74 91.17-10.98 91.17-9.67 91.17-7.74 90.67-7.11 86.94-7.11 84.15-7.11 80.5-7.69 78.44-8.28L78.44-0.58C80.64-0.04 83.97 0.45 87.44 0.45ZM127.17-31.23L103.37-31.23 103.37-23.4 110.79-23.4 110.79 0 119.7 0 119.7-23.4 127.17-23.4ZM158.72 0L150.34-11.43C154.13-12.82 155.79-15.75 155.79-20.79 155.79-28.21 151.65-31.23 143.69-31.23L131-31.23 131 0 139.95 0 139.95-10.48 141.71-10.48 148.14 0ZM139.95-24.39L142.11-24.39C145.75-24.39 146.97-23.67 146.97-20.79 146.97-17.86 145.75-16.88 142.11-16.88L139.95-16.88ZM161.46 0L170.42 0 170.42-31.23 161.46-31.23Z" transform="translate(-2.9700000286102295, 31.68000030517578)"></path></g> <!----> <!----> <!----> <!----> <!----> <!----> <!----></g></g> <g data-gra="path-slogan" fill-rule="" class="tp-slogan iconsvg-slogansvg" fill="#333333" transform="translate(5,39.130001068115234)"><rect x="0" height="1" y="3.9750003814697266" width="51.51417350769043"></rect> <rect height="1" y="3.9750003814697266" width="51.51417350769043" x="105.93582344055176"></rect> <g transform="translate(54.51417350769043,0)"><g transform="scale(1)"><path d="M7.17-6.09L7.17-6.09L6.09-6.09Q6-7.73 3.94-7.83L3.94-7.83Q2.02-7.78 2.02-6.33L2.02-6.33Q2.02-5.39 3.05-5.25L3.05-5.25L5.48-4.69Q7.41-4.22 7.41-2.34L7.41-2.34Q7.36 0.05 4.03 0.14L4.03 0.14Q2.20 0.14 1.45-0.61L1.45-0.61Q0.52-1.31 0.56-2.77L0.56-2.77L1.69-2.77Q1.73-0.80 4.03-0.75L4.03-0.75Q6.28-0.80 6.33-2.20L6.33-2.20Q6.52-3.38 4.45-3.75L4.45-3.75L2.67-4.13Q0.84-4.64 0.84-6.19L0.84-6.19Q0.98-8.72 3.84-8.81L3.84-8.81Q7.08-8.81 7.17-6.09ZM8.86-8.58L10.03-8.58L10.03-1.03L14.39-1.03L14.39 0L8.86 0L8.86-8.58ZM22.31-4.27L22.31-4.27Q22.13-7.64 19.31-7.83L19.31-7.83Q16.45-7.69 16.31-4.27L16.31-4.27Q16.45-0.94 19.31-0.80L19.31-0.80Q22.13-0.98 22.31-4.27ZM23.48-4.27L23.48-4.27Q23.20 0 19.31 0.14L19.31 0.14Q15.38 0 15.09-4.27L15.09-4.27Q15.33-8.72 19.31-8.81L19.31-8.81Q23.20-8.67 23.48-4.27ZM31.27-3.61L28.64-3.61L28.64-4.59L32.39-4.59L32.39 0L31.64 0L31.36-1.08Q30.38 0.09 28.55 0.14L28.55 0.14Q26.81 0.14 25.88-0.75L25.88-0.75Q24.47-2.06 24.52-4.36L24.52-4.36Q24.84-8.63 28.59-8.81L28.59-8.81Q31.78-8.63 32.25-6L32.25-6L31.13-6Q30.66-7.78 28.55-7.83L28.55-7.83Q25.88-7.64 25.73-4.31L25.73-4.31Q25.73-0.75 28.59-0.75L28.59-0.75Q29.63-0.75 30.38-1.31L30.38-1.31Q31.31-2.06 31.27-3.61L31.27-3.61ZM39.84 0L39-2.48L35.53-2.48L34.64 0L33.47 0L36.70-8.58L38.02-8.58L41.11 0L39.84 0ZM37.27-7.31L35.91-3.52L38.58-3.52L37.31-7.31L37.27-7.31ZM43.55-8.58L47.86-1.64L47.86-8.58L48.98-8.58L48.98 0L47.67 0L43.31-6.94L43.27-6.94L43.27 0L42.14 0L42.14-8.58L43.55-8.58Z" transform="translate(-0.5602678571428572, 8.8125)"></path></g></g></g></g></g><defs v-gra="od"></defs></svg>